<!DOCTYPE svg PUBLIC "-//W3C//DTD SVG 1.1//EN" "http://www.w3.org/Graphics/SVG/1.1/DTD/svg11.dtd">
<!-- Uploaded to: SVG Repo, www.svgrepo.com, Transformed by: SVG Repo Mixer Tools -->
<svg fill="#d14378" width="80px" height="80px" viewBox="0 0 24 24" id="money-alt-1" data-name="Flat Color" xmlns="http://www.w3.org/2000/svg" class="icon flat-color">
<g id="SVGRepo_bgCarrier" stroke-width="0"/>
<g id="SVGRepo_tracerCarrier" stroke-linecap="round" stroke-linejoin="round"/>
<g id="SVGRepo_iconCarrier">
<path id="primary" d="M18,22H6a1,1,0,0,1,0-2H18a1,1,0,0,1,0,2ZM20,2H4A2,2,0,0,0,2,4V16a2,2,0,0,0,2,2H20a2,2,0,0,0,2-2V4A2,2,0,0,0,20,2Z" style="fill: #d14378;"/>
<path id="secondary" d="M12.5,9h-1a.5.5,0,0,1,0-1H14a1,1,0,0,0,0-2H13a1,1,0,0,0-2,0v0a2.5,2.5,0,0,0,.5,5h1a.5.5,0,0,1,0,1H10a1,1,0,0,0,0,2h1a1,1,0,0,0,2,0V14A2.5,2.5,0,0,0,12.5,9Z" style="fill: #ec4c8a;"/>
</g>
</svg>